<svg width="512" height="512" viewBox="0 0 512 512" fill="none" xmlns="http://www.w3.org/2000/svg">
<rect width="512" height="512" fill="#4340DB"/>
<path fill-rule="evenodd" clip-rule="evenodd" d="M256.157 156.64C268.236 157.76 277.693 167.922 277.693 180.293C277.693 192.665 268.236 202.827 256.157 203.946C255.426 204.014 254.685 204.049 253.937 204.049C253.639 204.049 253.342 204.044 253.046 204.033H246.502L246.499 223.054V225.334L246.499 246.498L221.292 246.498C218.786 238.059 213.746 230.711 207.055 225.334C199.73 219.449 190.423 215.927 180.293 215.927C170.165 215.927 160.857 219.448 153.532 225.334C146.841 230.711 141.801 238.059 139.296 246.498H113.778C114.253 239.283 115.264 232.216 116.773 225.334C130.145 164.349 182.565 117.986 246.499 113.778V132.782L246.502 156.572H252.65L252.95 156.558L253.371 156.545L253.548 156.541L253.937 156.538C254.364 156.538 254.787 156.549 255.207 156.57C255.526 156.588 255.843 156.611 256.157 156.64ZM396.117 282.286C397.14 276.795 397.848 271.195 398.223 265.502H373.508L373.503 265.521C371.735 271.818 368.56 277.525 364.342 282.286C356.509 291.125 345.07 296.696 332.33 296.696C319.59 296.696 308.151 291.125 300.317 282.286C296.095 277.521 292.92 271.806 291.153 265.502H265.504V282.286L265.506 290.111V308.606H259.923L259.691 308.594L259.484 308.587L259.047 308.577L258.689 308.574C245.569 308.574 234.933 319.21 234.933 332.33C234.933 343.81 243.076 353.388 253.901 355.603C254.138 355.651 254.376 355.697 254.615 355.738C254.92 355.79 255.227 355.837 255.537 355.878C256.568 356.015 257.621 356.086 258.689 356.086C258.921 356.086 259.15 356.083 259.38 356.076L259.636 356.067H265.506L265.502 374.549V398.222C330.958 393.914 384.347 345.419 396.117 282.286ZM398.223 246.498H379.841L356.078 246.5V253.321C356.082 253.526 356.085 253.73 356.085 253.936C356.085 254.583 356.059 255.224 356.009 255.858C355.031 268.079 344.803 277.692 332.33 277.692C320.03 277.692 309.914 268.344 308.697 256.365L308.669 256.071L308.649 255.844L308.619 255.419L308.596 254.97C308.588 254.781 308.582 254.592 308.579 254.402H308.565V246.5H294.801H289.571L265.504 246.498V221.47C279.464 217.558 290.536 206.734 294.801 192.924C296.034 188.932 296.698 184.691 296.698 180.293C296.698 175.895 296.034 171.656 294.801 167.663L294.623 167.103C294.535 166.832 294.446 166.564 294.354 166.297C289.798 153.14 279 142.899 265.504 139.116V113.778C275.591 114.442 285.395 116.157 294.801 118.811C351.736 134.88 394.205 185.437 398.223 246.498ZM226.724 360.733C231.948 366.607 238.766 371.032 246.499 373.328V398.222C239.394 397.755 232.428 396.766 225.646 395.295C164.505 382.035 117.995 329.547 113.778 265.502L138.073 265.505H156.541L156.541 258.963L156.539 258.687L156.541 258.412V257.598H156.564C156.623 256.26 156.794 254.95 157.067 253.679C157.206 253.035 157.37 252.401 157.559 251.777L157.608 251.623C160.615 241.954 169.635 234.932 180.295 234.932C191.006 234.932 200.062 242.021 203.026 251.763C203.591 253.622 203.935 255.577 204.026 257.598H204.054V265.505L222.514 265.502H225.646H246.499V291.332C238.225 293.788 230.992 298.689 225.646 305.185C219.569 312.57 215.927 322.02 215.927 332.33C215.927 343.231 220.008 353.181 226.724 360.733Z" fill="white"/>
</svg>
